<svg xmlns="http://www.w3.org/2000/svg" xmlns:xlink="http://www.w3.org/1999/xlink" width="500" zoomAndPan="magnify" viewBox="0 0 375 149.999998" height="200" preserveAspectRatio="xMidYMid meet" version="1.0"><defs><g/><clipPath id="fe5fe86c7b"><path d="M 274.3125 27.9375 L 370.910156 27.9375 L 370.910156 119.867188 L 274.3125 119.867188 Z M 274.3125 27.9375 " clip-rule="nonzero"/></clipPath><clipPath id="52da637974"><path d="M 322.539062 27.9375 L 333.921875 63.050781 L 370.765625 63.050781 L 340.957031 84.753906 L 352.34375 119.867188 L 322.539062 98.164062 L 292.734375 119.867188 L 304.117188 84.753906 L 274.3125 63.050781 L 311.152344 63.050781 Z M 322.539062 27.9375 " clip-rule="nonzero"/></clipPath></defs><g fill="#ffffff" fill-opacity="1"><g transform="translate(0.69174, 117.941446)"><g><path d="M 40.875 -34.40625 L 32.5 -34.40625 C 32.238281 -34.40625 31.898438 -34.234375 31.484375 -33.890625 C 31.054688 -33.554688 30.84375 -33.050781 30.84375 -32.375 L 30.84375 -9.90625 C 30.84375 -8.800781 30.632812 -7.65625 30.21875 -6.46875 C 29.789062 -5.289062 29.15625 -4.234375 28.3125 -3.296875 C 27.375 -2.285156 26.226562 -1.484375 24.875 -0.890625 C 23.519531 -0.210938 21.957031 0.125 20.1875 0.125 C 18.40625 0.125 16.878906 -0.210938 15.609375 -0.890625 C 14.253906 -1.484375 13.15625 -2.285156 12.3125 -3.296875 C 11.382812 -4.316406 10.707031 -5.414062 10.28125 -6.59375 C 9.769531 -7.78125 9.515625 -8.925781 9.515625 -10.03125 L 9.515625 -79.84375 C 9.515625 -81.03125 9.769531 -82.210938 10.28125 -83.390625 C 10.707031 -84.578125 11.382812 -85.679688 12.3125 -86.703125 C 13.238281 -87.628906 14.378906 -88.429688 15.734375 -89.109375 C 17.003906 -89.703125 18.53125 -90 20.3125 -90 L 41 -90 C 45.738281 -90 49.96875 -89.238281 53.6875 -87.71875 C 57.332031 -86.101562 60.425781 -83.984375 62.96875 -81.359375 C 65.414062 -78.742188 67.273438 -75.785156 68.546875 -72.484375 C 69.816406 -69.097656 70.453125 -65.671875 70.453125 -62.203125 C 70.453125 -58.734375 69.816406 -55.347656 68.546875 -52.046875 C 67.191406 -48.660156 65.285156 -45.695312 62.828125 -43.15625 C 60.296875 -40.53125 57.207031 -38.414062 53.5625 -36.8125 C 49.84375 -35.207031 45.613281 -34.40625 40.875 -34.40625 Z M 30.84375 -56.734375 C 30.84375 -56.054688 31.054688 -55.550781 31.484375 -55.21875 C 31.898438 -54.875 32.238281 -54.703125 32.5 -54.703125 L 40.875 -54.703125 C 43.5 -54.703125 45.53125 -55.378906 46.96875 -56.734375 C 48.320312 -58.003906 49 -59.867188 49 -62.328125 C 49 -64.773438 48.320312 -66.675781 46.96875 -68.03125 C 45.53125 -69.300781 43.5 -69.9375 40.875 -69.9375 L 32.5 -69.9375 C 32.238281 -69.9375 31.898438 -69.769531 31.484375 -69.4375 C 31.054688 -69.09375 30.84375 -68.582031 30.84375 -67.90625 Z M 30.84375 -56.734375 "/></g></g></g><g fill="#ffffff" fill-opacity="1"><g transform="translate(80.791363, 117.941446)"><g><path d="M 56.109375 0 C 49.503906 0 43.367188 -1.097656 37.703125 -3.296875 C 31.941406 -5.410156 26.988281 -8.457031 22.84375 -12.4375 C 18.695312 -16.332031 15.441406 -21.070312 13.078125 -26.65625 C 10.703125 -32.15625 9.515625 -38.289062 9.515625 -45.0625 C 9.515625 -51.832031 10.703125 -57.96875 13.078125 -63.46875 C 15.441406 -68.96875 18.695312 -73.707031 22.84375 -77.6875 C 26.988281 -81.582031 31.941406 -84.628906 37.703125 -86.828125 C 43.367188 -88.941406 49.503906 -90 56.109375 -90 C 62.703125 -90 68.835938 -88.941406 74.515625 -86.828125 C 80.179688 -84.628906 85.085938 -81.582031 89.234375 -77.6875 C 93.378906 -73.707031 96.640625 -68.96875 99.015625 -63.46875 C 101.378906 -57.96875 102.5625 -51.832031 102.5625 -45.0625 C 102.5625 -38.289062 101.378906 -32.15625 99.015625 -26.65625 C 96.640625 -21.070312 93.378906 -16.332031 89.234375 -12.4375 C 85.085938 -8.457031 80.179688 -5.410156 74.515625 -3.296875 C 68.835938 -1.097656 62.703125 0 56.109375 0 Z M 81.109375 -45.0625 C 81.109375 -48.53125 80.601562 -51.789062 79.59375 -54.84375 C 78.488281 -57.882812 76.921875 -60.546875 74.890625 -62.828125 C 72.773438 -65.035156 70.148438 -66.769531 67.015625 -68.03125 C 63.890625 -69.300781 60.253906 -69.9375 56.109375 -69.9375 C 51.960938 -69.9375 48.320312 -69.300781 45.1875 -68.03125 C 42.0625 -66.769531 39.4375 -65.035156 37.3125 -62.828125 C 35.195312 -60.546875 33.632812 -57.882812 32.625 -54.84375 C 31.519531 -51.789062 30.96875 -48.53125 30.96875 -45.0625 C 30.96875 -41.507812 31.519531 -38.25 32.625 -35.28125 C 33.632812 -32.238281 35.195312 -29.617188 37.3125 -27.421875 C 39.4375 -25.128906 42.0625 -23.351562 45.1875 -22.09375 C 48.320312 -20.820312 51.960938 -20.1875 56.109375 -20.1875 C 60.253906 -20.1875 63.890625 -20.820312 67.015625 -22.09375 C 70.148438 -23.351562 72.773438 -25.128906 74.890625 -27.421875 C 76.921875 -29.617188 78.488281 -32.238281 79.59375 -35.28125 C 80.601562 -38.25 81.109375 -41.507812 81.109375 -45.0625 Z M 81.109375 -45.0625 "/></g></g></g><g fill="#ffffff" fill-opacity="1"><g transform="translate(192.88006, 117.941446)"><g><path d="M 40.875 -34.40625 L 32.5 -34.40625 C 32.238281 -34.40625 31.898438 -34.234375 31.484375 -33.890625 C 31.054688 -33.554688 30.84375 -33.050781 30.84375 -32.375 L 30.84375 -9.90625 C 30.84375 -8.800781 30.632812 -7.65625 30.21875 -6.46875 C 29.789062 -5.289062 29.15625 -4.234375 28.3125 -3.296875 C 27.375 -2.285156 26.226562 -1.484375 24.875 -0.890625 C 23.519531 -0.210938 21.957031 0.125 20.1875 0.125 C 18.40625 0.125 16.878906 -0.210938 15.609375 -0.890625 C 14.253906 -1.484375 13.15625 -2.285156 12.3125 -3.296875 C 11.382812 -4.316406 10.707031 -5.414062 10.28125 -6.59375 C 9.769531 -7.78125 9.515625 -8.925781 9.515625 -10.03125 L 9.515625 -79.84375 C 9.515625 -81.03125 9.769531 -82.210938 10.28125 -83.390625 C 10.707031 -84.578125 11.382812 -85.679688 12.3125 -86.703125 C 13.238281 -87.628906 14.378906 -88.429688 15.734375 -89.109375 C 17.003906 -89.703125 18.53125 -90 20.3125 -90 L 41 -90 C 45.738281 -90 49.96875 -89.238281 53.6875 -87.71875 C 57.332031 -86.101562 60.425781 -83.984375 62.96875 -81.359375 C 65.414062 -78.742188 67.273438 -75.785156 68.546875 -72.484375 C 69.816406 -69.097656 70.453125 -65.671875 70.453125 -62.203125 C 70.453125 -58.734375 69.816406 -55.347656 68.546875 -52.046875 C 67.191406 -48.660156 65.285156 -45.695312 62.828125 -43.15625 C 60.296875 -40.53125 57.207031 -38.414062 53.5625 -36.8125 C 49.84375 -35.207031 45.613281 -34.40625 40.875 -34.40625 Z M 30.84375 -56.734375 C 30.84375 -56.054688 31.054688 -55.550781 31.484375 -55.21875 C 31.898438 -54.875 32.238281 -54.703125 32.5 -54.703125 L 40.875 -54.703125 C 43.5 -54.703125 45.53125 -55.378906 46.96875 -56.734375 C 48.320312 -58.003906 49 -59.867188 49 -62.328125 C 49 -64.773438 48.320312 -66.675781 46.96875 -68.03125 C 45.53125 -69.300781 43.5 -69.9375 40.875 -69.9375 L 32.5 -69.9375 C 32.238281 -69.9375 31.898438 -69.769531 31.484375 -69.4375 C 31.054688 -69.09375 30.84375 -68.582031 30.84375 -67.90625 Z M 30.84375 -56.734375 "/></g></g></g><g clip-path="url(#fe5fe86c7b)"><g clip-path="url(#52da637974)"><path fill="#ee0060" d="M 274.3125 27.9375 L 370.910156 27.9375 L 370.910156 119.867188 L 274.3125 119.867188 Z M 274.3125 27.9375 " fill-opacity="1" fill-rule="nonzero"/></g></g></svg>