<svg xmlns="http://www.w3.org/2000/svg" xmlns:xlink="http://www.w3.org/1999/xlink" width="500" zoomAndPan="magnify" viewBox="0 0 375 374.999991" height="500" preserveAspectRatio="xMidYMid meet" version="1.0"><defs><g/></defs><rect x="-37.5" width="450" fill="#ffffff" y="-37.499999" height="449.999989" fill-opacity="1"/><rect x="-37.5" width="450" fill="#000000" y="-37.499999" height="449.999989" fill-opacity="1"/><g fill="#ffffff" fill-opacity="1"><g transform="translate(38.087463, 233.104712)"><g><path d="M 8.296875 -11.65625 C 8.960938 -11.65625 9.570312 -11.492188 10.125 -11.171875 C 10.675781 -10.859375 11.113281 -10.429688 11.4375 -9.890625 C 11.769531 -9.347656 11.9375 -8.742188 11.9375 -8.078125 C 11.9375 -7.378906 11.765625 -6.75 11.421875 -6.1875 C 11.078125 -5.632812 10.613281 -5.191406 10.03125 -4.859375 C 9.445312 -4.523438 8.8125 -4.359375 8.125 -4.359375 L 4.203125 -4.359375 L 4.203125 0 L 2.40625 0 L 2.40625 -11.65625 Z M 8.015625 -6.09375 C 8.378906 -6.09375 8.71875 -6.179688 9.03125 -6.359375 C 9.34375 -6.546875 9.585938 -6.785156 9.765625 -7.078125 C 9.953125 -7.378906 10.046875 -7.710938 10.046875 -8.078125 C 10.046875 -8.421875 9.953125 -8.726562 9.765625 -9 C 9.585938 -9.28125 9.34375 -9.503906 9.03125 -9.671875 C 8.71875 -9.835938 8.378906 -9.921875 8.015625 -9.921875 L 4.203125 -9.921875 L 4.203125 -6.09375 Z M 8.015625 -6.09375 "/></g></g></g><g fill="#ffffff" fill-opacity="1"><g transform="translate(64.155377, 233.104712)"><g><path d="M 4.203125 -11.65625 L 4.203125 -6.640625 L 11.3125 -6.640625 L 11.3125 -11.65625 L 13.109375 -11.65625 L 13.109375 0 L 11.3125 0 L 11.3125 -4.90625 L 4.203125 -4.90625 L 4.203125 0 L 2.40625 0 L 2.40625 -11.65625 Z M 4.203125 -11.65625 "/></g></g></g><g fill="#ffffff" fill-opacity="1"><g transform="translate(92.219179, 233.104712)"><g><path d="M 14.4375 -5.828125 C 14.4375 -4.984375 14.28125 -4.195312 13.96875 -3.46875 C 13.65625 -2.738281 13.207031 -2.101562 12.625 -1.5625 C 12.050781 -1.019531 11.367188 -0.59375 10.578125 -0.28125 C 9.796875 0.0195312 8.9375 0.171875 8 0.171875 C 7.050781 0.171875 6.179688 0.0195312 5.390625 -0.28125 C 4.597656 -0.59375 3.914062 -1.019531 3.34375 -1.5625 C 2.78125 -2.101562 2.335938 -2.738281 2.015625 -3.46875 C 1.703125 -4.195312 1.546875 -4.984375 1.546875 -5.828125 C 1.546875 -6.671875 1.703125 -7.453125 2.015625 -8.171875 C 2.335938 -8.898438 2.78125 -9.535156 3.34375 -10.078125 C 3.914062 -10.628906 4.597656 -11.054688 5.390625 -11.359375 C 6.179688 -11.660156 7.050781 -11.8125 8 -11.8125 C 8.9375 -11.8125 9.796875 -11.660156 10.578125 -11.359375 C 11.367188 -11.054688 12.050781 -10.628906 12.625 -10.078125 C 13.207031 -9.535156 13.65625 -8.898438 13.96875 -8.171875 C 14.28125 -7.453125 14.4375 -6.671875 14.4375 -5.828125 Z M 12.609375 -5.828125 C 12.609375 -6.628906 12.410156 -7.347656 12.015625 -7.984375 C 11.628906 -8.628906 11.085938 -9.132812 10.390625 -9.5 C 9.703125 -9.875 8.90625 -10.0625 8 -10.0625 C 7.082031 -10.0625 6.273438 -9.875 5.578125 -9.5 C 4.890625 -9.132812 4.347656 -8.628906 3.953125 -7.984375 C 3.566406 -7.347656 3.375 -6.628906 3.375 -5.828125 C 3.375 -5.015625 3.566406 -4.289062 3.953125 -3.65625 C 4.347656 -3.019531 4.890625 -2.515625 5.578125 -2.140625 C 6.273438 -1.765625 7.082031 -1.578125 8 -1.578125 C 8.90625 -1.578125 9.703125 -1.765625 10.390625 -2.140625 C 11.085938 -2.515625 11.628906 -3.019531 12.015625 -3.65625 C 12.410156 -4.300781 12.609375 -5.023438 12.609375 -5.828125 Z M 12.609375 -5.828125 "/></g></g></g><g fill="#ffffff" fill-opacity="1"><g transform="translate(120.748685, 233.104712)"><g><path d="M 5.109375 0 L 5.109375 -9.921875 L 1.1875 -9.921875 L 1.1875 -11.65625 L 10.921875 -11.65625 L 10.921875 -9.921875 L 6.90625 -9.921875 L 6.90625 0 Z M 5.109375 0 "/></g></g></g><g fill="#ffffff" fill-opacity="1"><g transform="translate(145.386218, 233.104712)"><g><path d="M 14.4375 -5.828125 C 14.4375 -4.984375 14.28125 -4.195312 13.96875 -3.46875 C 13.65625 -2.738281 13.207031 -2.101562 12.625 -1.5625 C 12.050781 -1.019531 11.367188 -0.59375 10.578125 -0.28125 C 9.796875 0.0195312 8.9375 0.171875 8 0.171875 C 7.050781 0.171875 6.179688 0.0195312 5.390625 -0.28125 C 4.597656 -0.59375 3.914062 -1.019531 3.34375 -1.5625 C 2.78125 -2.101562 2.335938 -2.738281 2.015625 -3.46875 C 1.703125 -4.195312 1.546875 -4.984375 1.546875 -5.828125 C 1.546875 -6.671875 1.703125 -7.453125 2.015625 -8.171875 C 2.335938 -8.898438 2.78125 -9.535156 3.34375 -10.078125 C 3.914062 -10.628906 4.597656 -11.054688 5.390625 -11.359375 C 6.179688 -11.660156 7.050781 -11.8125 8 -11.8125 C 8.9375 -11.8125 9.796875 -11.660156 10.578125 -11.359375 C 11.367188 -11.054688 12.050781 -10.628906 12.625 -10.078125 C 13.207031 -9.535156 13.65625 -8.898438 13.96875 -8.171875 C 14.28125 -7.453125 14.4375 -6.671875 14.4375 -5.828125 Z M 12.609375 -5.828125 C 12.609375 -6.628906 12.410156 -7.347656 12.015625 -7.984375 C 11.628906 -8.628906 11.085938 -9.132812 10.390625 -9.5 C 9.703125 -9.875 8.90625 -10.0625 8 -10.0625 C 7.082031 -10.0625 6.273438 -9.875 5.578125 -9.5 C 4.890625 -9.132812 4.347656 -8.628906 3.953125 -7.984375 C 3.566406 -7.347656 3.375 -6.628906 3.375 -5.828125 C 3.375 -5.015625 3.566406 -4.289062 3.953125 -3.65625 C 4.347656 -3.019531 4.890625 -2.515625 5.578125 -2.140625 C 6.273438 -1.765625 7.082031 -1.578125 8 -1.578125 C 8.90625 -1.578125 9.703125 -1.765625 10.390625 -2.140625 C 11.085938 -2.515625 11.628906 -3.019531 12.015625 -3.65625 C 12.410156 -4.300781 12.609375 -5.023438 12.609375 -5.828125 Z M 12.609375 -5.828125 "/></g></g></g><g fill="#ffffff" fill-opacity="1"><g transform="translate(173.915724, 233.104712)"><g><path d="M 8.109375 -11.65625 C 9.421875 -11.65625 10.410156 -11.40625 11.078125 -10.90625 C 11.753906 -10.40625 12.09375 -9.675781 12.09375 -8.71875 C 12.09375 -8.195312 11.953125 -7.726562 11.671875 -7.3125 C 11.390625 -6.894531 10.976562 -6.578125 10.4375 -6.359375 C 10.832031 -6.222656 11.203125 -6.03125 11.546875 -5.78125 C 11.898438 -5.539062 12.179688 -5.226562 12.390625 -4.84375 C 12.609375 -4.457031 12.71875 -3.984375 12.71875 -3.421875 C 12.71875 -2.742188 12.585938 -2.179688 12.328125 -1.734375 C 12.078125 -1.296875 11.742188 -0.945312 11.328125 -0.6875 C 10.910156 -0.4375 10.445312 -0.257812 9.9375 -0.15625 C 9.4375 -0.0507812 8.929688 0 8.421875 0 L 2.40625 0 L 2.40625 -11.65625 Z M 8.046875 -9.921875 L 4.203125 -9.921875 L 4.203125 -6.875 L 8.25 -6.875 C 8.78125 -6.882812 9.25 -7.019531 9.65625 -7.28125 C 10.0625 -7.550781 10.265625 -7.929688 10.265625 -8.421875 C 10.265625 -8.960938 10.050781 -9.347656 9.625 -9.578125 C 9.195312 -9.804688 8.671875 -9.921875 8.046875 -9.921875 Z M 8.34375 -5.140625 L 4.203125 -5.140625 L 4.203125 -1.734375 L 8.421875 -1.734375 C 9.140625 -1.734375 9.726562 -1.875 10.1875 -2.15625 C 10.65625 -2.4375 10.890625 -2.875 10.890625 -3.46875 C 10.890625 -3.894531 10.753906 -4.226562 10.484375 -4.46875 C 10.222656 -4.71875 9.894531 -4.890625 9.5 -4.984375 C 9.113281 -5.085938 8.726562 -5.140625 8.34375 -5.140625 Z M 8.34375 -5.140625 "/></g></g></g><g fill="#ffffff" fill-opacity="1"><g transform="translate(200.715472, 233.104712)"><g><path d="M 14.4375 -5.828125 C 14.4375 -4.984375 14.28125 -4.195312 13.96875 -3.46875 C 13.65625 -2.738281 13.207031 -2.101562 12.625 -1.5625 C 12.050781 -1.019531 11.367188 -0.59375 10.578125 -0.28125 C 9.796875 0.0195312 8.9375 0.171875 8 0.171875 C 7.050781 0.171875 6.179688 0.0195312 5.390625 -0.28125 C 4.597656 -0.59375 3.914062 -1.019531 3.34375 -1.5625 C 2.78125 -2.101562 2.335938 -2.738281 2.015625 -3.46875 C 1.703125 -4.195312 1.546875 -4.984375 1.546875 -5.828125 C 1.546875 -6.671875 1.703125 -7.453125 2.015625 -8.171875 C 2.335938 -8.898438 2.78125 -9.535156 3.34375 -10.078125 C 3.914062 -10.628906 4.597656 -11.054688 5.390625 -11.359375 C 6.179688 -11.660156 7.050781 -11.8125 8 -11.8125 C 8.9375 -11.8125 9.796875 -11.660156 10.578125 -11.359375 C 11.367188 -11.054688 12.050781 -10.628906 12.625 -10.078125 C 13.207031 -9.535156 13.65625 -8.898438 13.96875 -8.171875 C 14.28125 -7.453125 14.4375 -6.671875 14.4375 -5.828125 Z M 12.609375 -5.828125 C 12.609375 -6.628906 12.410156 -7.347656 12.015625 -7.984375 C 11.628906 -8.628906 11.085938 -9.132812 10.390625 -9.5 C 9.703125 -9.875 8.90625 -10.0625 8 -10.0625 C 7.082031 -10.0625 6.273438 -9.875 5.578125 -9.5 C 4.890625 -9.132812 4.347656 -8.628906 3.953125 -7.984375 C 3.566406 -7.347656 3.375 -6.628906 3.375 -5.828125 C 3.375 -5.015625 3.566406 -4.289062 3.953125 -3.65625 C 4.347656 -3.019531 4.890625 -2.515625 5.578125 -2.140625 C 6.273438 -1.765625 7.082031 -1.578125 8 -1.578125 C 8.90625 -1.578125 9.703125 -1.765625 10.390625 -2.140625 C 11.085938 -2.515625 11.628906 -3.019531 12.015625 -3.65625 C 12.410156 -4.300781 12.609375 -5.023438 12.609375 -5.828125 Z M 12.609375 -5.828125 "/></g></g></g><g fill="#ffffff" fill-opacity="1"><g transform="translate(229.244969, 233.104712)"><g><path d="M 14.4375 -5.828125 C 14.4375 -4.984375 14.28125 -4.195312 13.96875 -3.46875 C 13.65625 -2.738281 13.207031 -2.101562 12.625 -1.5625 C 12.050781 -1.019531 11.367188 -0.59375 10.578125 -0.28125 C 9.796875 0.0195312 8.9375 0.171875 8 0.171875 C 7.050781 0.171875 6.179688 0.0195312 5.390625 -0.28125 C 4.597656 -0.59375 3.914062 -1.019531 3.34375 -1.5625 C 2.78125 -2.101562 2.335938 -2.738281 2.015625 -3.46875 C 1.703125 -4.195312 1.546875 -4.984375 1.546875 -5.828125 C 1.546875 -6.671875 1.703125 -7.453125 2.015625 -8.171875 C 2.335938 -8.898438 2.78125 -9.535156 3.34375 -10.078125 C 3.914062 -10.628906 4.597656 -11.054688 5.390625 -11.359375 C 6.179688 -11.660156 7.050781 -11.8125 8 -11.8125 C 8.9375 -11.8125 9.796875 -11.660156 10.578125 -11.359375 C 11.367188 -11.054688 12.050781 -10.628906 12.625 -10.078125 C 13.207031 -9.535156 13.65625 -8.898438 13.96875 -8.171875 C 14.28125 -7.453125 14.4375 -6.671875 14.4375 -5.828125 Z M 12.609375 -5.828125 C 12.609375 -6.628906 12.410156 -7.347656 12.015625 -7.984375 C 11.628906 -8.628906 11.085938 -9.132812 10.390625 -9.5 C 9.703125 -9.875 8.90625 -10.0625 8 -10.0625 C 7.082031 -10.0625 6.273438 -9.875 5.578125 -9.5 C 4.890625 -9.132812 4.347656 -8.628906 3.953125 -7.984375 C 3.566406 -7.347656 3.375 -6.628906 3.375 -5.828125 C 3.375 -5.015625 3.566406 -4.289062 3.953125 -3.65625 C 4.347656 -3.019531 4.890625 -2.515625 5.578125 -2.140625 C 6.273438 -1.765625 7.082031 -1.578125 8 -1.578125 C 8.90625 -1.578125 9.703125 -1.765625 10.390625 -2.140625 C 11.085938 -2.515625 11.628906 -3.019531 12.015625 -3.65625 C 12.410156 -4.300781 12.609375 -5.023438 12.609375 -5.828125 Z M 12.609375 -5.828125 "/></g></g></g><g fill="#ffffff" fill-opacity="1"><g transform="translate(257.774465, 233.104712)"><g><path d="M 5.109375 0 L 5.109375 -9.921875 L 1.1875 -9.921875 L 1.1875 -11.65625 L 10.921875 -11.65625 L 10.921875 -9.921875 L 6.90625 -9.921875 L 6.90625 0 Z M 5.109375 0 "/></g></g></g><g fill="#ffffff" fill-opacity="1"><g transform="translate(282.412007, 233.104712)"><g><path d="M 4.203125 -11.65625 L 4.203125 -6.640625 L 11.3125 -6.640625 L 11.3125 -11.65625 L 13.109375 -11.65625 L 13.109375 0 L 11.3125 0 L 11.3125 -4.90625 L 4.203125 -4.90625 L 4.203125 0 L 2.40625 0 L 2.40625 -11.65625 Z M 4.203125 -11.65625 "/></g></g></g><g fill="#ffffff" fill-opacity="1"><g transform="translate(310.475817, 233.104712)"><g><path d="M 2.734375 -3.5625 C 3.304688 -2.882812 3.90625 -2.363281 4.53125 -2 C 5.15625 -1.632812 5.925781 -1.453125 6.84375 -1.453125 C 7.332031 -1.453125 7.800781 -1.515625 8.25 -1.640625 C 8.695312 -1.765625 9.066406 -1.957031 9.359375 -2.21875 C 9.648438 -2.476562 9.796875 -2.800781 9.796875 -3.1875 C 9.796875 -3.75 9.5 -4.148438 8.90625 -4.390625 C 8.320312 -4.640625 7.5 -4.84375 6.4375 -5 C 5.125 -5.195312 4.078125 -5.5625 3.296875 -6.09375 C 2.523438 -6.632812 2.140625 -7.421875 2.140625 -8.453125 C 2.140625 -9.148438 2.347656 -9.75 2.765625 -10.25 C 3.179688 -10.75 3.742188 -11.132812 4.453125 -11.40625 C 5.171875 -11.675781 5.957031 -11.8125 6.8125 -11.8125 C 7.875 -11.8125 8.789062 -11.632812 9.5625 -11.28125 C 10.34375 -10.925781 10.957031 -10.421875 11.40625 -9.765625 L 10.171875 -8.484375 C 9.804688 -8.992188 9.332031 -9.40625 8.75 -9.71875 C 8.175781 -10.039062 7.507812 -10.203125 6.75 -10.203125 C 5.976562 -10.203125 5.332031 -10.0625 4.8125 -9.78125 C 4.289062 -9.5 4.03125 -9.101562 4.03125 -8.59375 C 4.03125 -7.988281 4.304688 -7.5625 4.859375 -7.3125 C 5.421875 -7.0625 6.160156 -6.863281 7.078125 -6.71875 C 7.671875 -6.632812 8.242188 -6.519531 8.796875 -6.375 C 9.347656 -6.226562 9.835938 -6.035156 10.265625 -5.796875 C 10.703125 -5.554688 11.046875 -5.253906 11.296875 -4.890625 C 11.554688 -4.523438 11.6875 -4.070312 11.6875 -3.53125 C 11.6875 -2.78125 11.484375 -2.128906 11.078125 -1.578125 C 10.679688 -1.023438 10.113281 -0.59375 9.375 -0.28125 C 8.632812 0.0195312 7.757812 0.171875 6.75 0.171875 C 5.675781 0.171875 4.707031 -0.00390625 3.84375 -0.359375 C 2.976562 -0.722656 2.21875 -1.300781 1.5625 -2.09375 Z M 2.734375 -3.5625 "/></g></g></g><g fill="#ffffff" fill-opacity="1"><g transform="translate(7.39122, 205.420605)"><g><path d="M 23.171875 -19.5 L 18.421875 -19.5 C 18.273438 -19.5 18.082031 -19.40625 17.84375 -19.21875 C 17.601562 -19.019531 17.484375 -18.726562 17.484375 -18.34375 L 17.484375 -5.609375 C 17.484375 -4.984375 17.363281 -4.335938 17.125 -3.671875 C 16.882812 -2.992188 16.523438 -2.394531 16.046875 -1.875 C 15.515625 -1.289062 14.867188 -0.832031 14.109375 -0.5 C 13.335938 -0.113281 12.445312 0.078125 11.4375 0.078125 C 10.425781 0.078125 9.5625 -0.113281 8.84375 -0.5 C 8.082031 -0.832031 7.460938 -1.289062 6.984375 -1.875 C 6.453125 -2.445312 6.066406 -3.066406 5.828125 -3.734375 C 5.535156 -4.410156 5.390625 -5.0625 5.390625 -5.6875 L 5.390625 -45.265625 C 5.390625 -45.929688 5.535156 -46.597656 5.828125 -47.265625 C 6.066406 -47.941406 6.453125 -48.566406 6.984375 -49.140625 C 7.503906 -49.671875 8.148438 -50.128906 8.921875 -50.515625 C 9.640625 -50.847656 10.503906 -51.015625 11.515625 -51.015625 L 23.234375 -51.015625 C 25.921875 -51.015625 28.320312 -50.582031 30.4375 -49.71875 C 32.5 -48.8125 34.25 -47.613281 35.6875 -46.125 C 37.082031 -44.632812 38.140625 -42.953125 38.859375 -41.078125 C 39.578125 -39.160156 39.9375 -37.21875 39.9375 -35.25 C 39.9375 -33.289062 39.578125 -31.375 38.859375 -29.5 C 38.085938 -27.582031 37.003906 -25.90625 35.609375 -24.46875 C 34.171875 -22.976562 32.421875 -21.773438 30.359375 -20.859375 C 28.253906 -19.953125 25.859375 -19.5 23.171875 -19.5 Z M 17.484375 -32.15625 C 17.484375 -31.78125 17.601562 -31.492188 17.84375 -31.296875 C 18.082031 -31.109375 18.273438 -31.015625 18.421875 -31.015625 L 23.171875 -31.015625 C 24.660156 -31.015625 25.8125 -31.394531 26.625 -32.15625 C 27.394531 -32.882812 27.78125 -33.941406 27.78125 -35.328125 C 27.78125 -36.722656 27.394531 -37.800781 26.625 -38.5625 C 25.8125 -39.28125 24.660156 -39.640625 23.171875 -39.640625 L 18.421875 -39.640625 C 18.273438 -39.640625 18.082031 -39.546875 17.84375 -39.359375 C 17.601562 -39.171875 17.484375 -38.882812 17.484375 -38.5 Z M 17.484375 -32.15625 "/></g></g></g><g fill="#ffffff" fill-opacity="1"><g transform="translate(52.79598, 205.420605)"><g><path d="M 31.796875 0 C 28.054688 0 24.582031 -0.625 21.375 -1.875 C 18.113281 -3.070312 15.304688 -4.796875 12.953125 -7.046875 C 10.597656 -9.253906 8.75 -11.941406 7.40625 -15.109375 C 6.0625 -18.222656 5.390625 -21.703125 5.390625 -25.546875 C 5.390625 -29.378906 6.0625 -32.851562 7.40625 -35.96875 C 8.75 -39.09375 10.597656 -41.78125 12.953125 -44.03125 C 15.304688 -46.238281 18.113281 -47.96875 21.375 -49.21875 C 24.582031 -50.414062 28.054688 -51.015625 31.796875 -51.015625 C 35.546875 -51.015625 39.023438 -50.414062 42.234375 -49.21875 C 45.453125 -47.96875 48.234375 -46.238281 50.578125 -44.03125 C 52.929688 -41.78125 54.78125 -39.09375 56.125 -35.96875 C 57.46875 -32.851562 58.140625 -29.378906 58.140625 -25.546875 C 58.140625 -21.703125 57.46875 -18.222656 56.125 -15.109375 C 54.78125 -11.941406 52.929688 -9.253906 50.578125 -7.046875 C 48.234375 -4.796875 45.453125 -3.070312 42.234375 -1.875 C 39.023438 -0.625 35.546875 0 31.796875 0 Z M 45.984375 -25.546875 C 45.984375 -27.515625 45.691406 -29.359375 45.109375 -31.078125 C 44.484375 -32.804688 43.597656 -34.316406 42.453125 -35.609375 C 41.253906 -36.859375 39.765625 -37.84375 37.984375 -38.5625 C 36.210938 -39.28125 34.148438 -39.640625 31.796875 -39.640625 C 29.453125 -39.640625 27.390625 -39.28125 25.609375 -38.5625 C 23.835938 -37.84375 22.351562 -36.859375 21.15625 -35.609375 C 19.957031 -34.316406 19.066406 -32.804688 18.484375 -31.078125 C 17.867188 -29.359375 17.5625 -27.515625 17.5625 -25.546875 C 17.5625 -23.523438 17.867188 -21.675781 18.484375 -20 C 19.066406 -18.269531 19.957031 -16.785156 21.15625 -15.546875 C 22.351562 -14.242188 23.835938 -13.234375 25.609375 -12.515625 C 27.390625 -11.796875 29.453125 -11.4375 31.796875 -11.4375 C 34.148438 -11.4375 36.210938 -11.796875 37.984375 -12.515625 C 39.765625 -13.234375 41.253906 -14.242188 42.453125 -15.546875 C 43.597656 -16.785156 44.484375 -18.269531 45.109375 -20 C 45.691406 -21.675781 45.984375 -23.523438 45.984375 -25.546875 Z M 45.984375 -25.546875 "/></g></g></g><g fill="#ffffff" fill-opacity="1"><g transform="translate(116.333862, 205.420605)"><g><path d="M 23.171875 -19.5 L 18.421875 -19.5 C 18.273438 -19.5 18.082031 -19.40625 17.84375 -19.21875 C 17.601562 -19.019531 17.484375 -18.726562 17.484375 -18.34375 L 17.484375 -5.609375 C 17.484375 -4.984375 17.363281 -4.335938 17.125 -3.671875 C 16.882812 -2.992188 16.523438 -2.394531 16.046875 -1.875 C 15.515625 -1.289062 14.867188 -0.832031 14.109375 -0.5 C 13.335938 -0.113281 12.445312 0.078125 11.4375 0.078125 C 10.425781 0.078125 9.5625 -0.113281 8.84375 -0.5 C 8.082031 -0.832031 7.460938 -1.289062 6.984375 -1.875 C 6.453125 -2.445312 6.066406 -3.066406 5.828125 -3.734375 C 5.535156 -4.410156 5.390625 -5.0625 5.390625 -5.6875 L 5.390625 -45.265625 C 5.390625 -45.929688 5.535156 -46.597656 5.828125 -47.265625 C 6.066406 -47.941406 6.453125 -48.566406 6.984375 -49.140625 C 7.503906 -49.671875 8.148438 -50.128906 8.921875 -50.515625 C 9.640625 -50.847656 10.503906 -51.015625 11.515625 -51.015625 L 23.234375 -51.015625 C 25.921875 -51.015625 28.320312 -50.582031 30.4375 -49.71875 C 32.5 -48.8125 34.25 -47.613281 35.6875 -46.125 C 37.082031 -44.632812 38.140625 -42.953125 38.859375 -41.078125 C 39.578125 -39.160156 39.9375 -37.21875 39.9375 -35.25 C 39.9375 -33.289062 39.578125 -31.375 38.859375 -29.5 C 38.085938 -27.582031 37.003906 -25.90625 35.609375 -24.46875 C 34.171875 -22.976562 32.421875 -21.773438 30.359375 -20.859375 C 28.253906 -19.953125 25.859375 -19.5 23.171875 -19.5 Z M 17.484375 -32.15625 C 17.484375 -31.78125 17.601562 -31.492188 17.84375 -31.296875 C 18.082031 -31.109375 18.273438 -31.015625 18.421875 -31.015625 L 23.171875 -31.015625 C 24.660156 -31.015625 25.8125 -31.394531 26.625 -32.15625 C 27.394531 -32.882812 27.78125 -33.941406 27.78125 -35.328125 C 27.78125 -36.722656 27.394531 -37.800781 26.625 -38.5625 C 25.8125 -39.28125 24.660156 -39.640625 23.171875 -39.640625 L 18.421875 -39.640625 C 18.273438 -39.640625 18.082031 -39.546875 17.84375 -39.359375 C 17.601562 -39.171875 17.484375 -38.882812 17.484375 -38.5 Z M 17.484375 -32.15625 "/></g></g></g><g fill="#ffffff" fill-opacity="1"><g transform="translate(161.738616, 205.420605)"><g><path d="M 24.96875 -0.140625 C 23.332031 -0.140625 21.675781 -0.238281 20 -0.4375 C 18.320312 -0.625 16.691406 -0.957031 15.109375 -1.4375 C 13.472656 -1.875 11.9375 -2.5 10.5 -3.3125 C 9.0625 -4.125 7.789062 -5.175781 6.6875 -6.46875 C 5.726562 -7.570312 5.25 -8.796875 5.25 -10.140625 C 5.25 -10.765625 5.394531 -11.414062 5.6875 -12.09375 C 5.925781 -12.757812 6.304688 -13.378906 6.828125 -13.953125 C 7.316406 -14.535156 7.941406 -15.015625 8.703125 -15.390625 C 9.421875 -15.734375 10.285156 -15.90625 11.296875 -15.90625 C 12.492188 -15.90625 13.453125 -15.6875 14.171875 -15.25 C 14.890625 -14.769531 15.660156 -14.171875 16.484375 -13.453125 C 16.960938 -13.023438 17.5625 -12.691406 18.28125 -12.453125 C 19 -12.160156 19.765625 -11.96875 20.578125 -11.875 C 21.347656 -11.726562 22.113281 -11.628906 22.875 -11.578125 C 23.644531 -11.535156 24.34375 -11.515625 24.96875 -11.515625 C 27.21875 -11.515625 29.066406 -11.828125 30.515625 -12.453125 C 31.898438 -13.078125 32.59375 -14.15625 32.59375 -15.6875 C 32.59375 -16.3125 32.5 -16.789062 32.3125 -17.125 C 32.070312 -17.507812 31.59375 -17.867188 30.875 -18.203125 C 30.101562 -18.492188 29.285156 -18.78125 28.421875 -19.0625 C 27.554688 -19.300781 26.71875 -19.519531 25.90625 -19.71875 C 25.09375 -19.90625 24.46875 -20.023438 24.03125 -20.078125 C 21.914062 -20.597656 19.804688 -21.195312 17.703125 -21.875 C 15.585938 -22.539062 13.691406 -23.453125 12.015625 -24.609375 C 10.335938 -25.710938 8.972656 -27.148438 7.921875 -28.921875 C 6.859375 -30.648438 6.328125 -32.859375 6.328125 -35.546875 C 6.328125 -37.796875 6.804688 -39.882812 7.765625 -41.8125 C 8.722656 -43.726562 10.046875 -45.378906 11.734375 -46.765625 C 13.359375 -48.109375 15.320312 -49.164062 17.625 -49.9375 C 19.925781 -50.707031 22.398438 -51.09375 25.046875 -51.09375 C 27.773438 -51.09375 30.335938 -50.707031 32.734375 -49.9375 C 35.085938 -49.164062 37.175781 -47.847656 39 -45.984375 C 40.144531 -44.828125 40.71875 -43.484375 40.71875 -41.953125 C 40.71875 -41.328125 40.597656 -40.675781 40.359375 -40 C 40.078125 -39.332031 39.695312 -38.734375 39.21875 -38.203125 C 38.6875 -37.679688 38.0625 -37.25 37.34375 -36.90625 C 36.570312 -36.53125 35.6875 -36.34375 34.6875 -36.34375 C 33.144531 -36.34375 31.800781 -36.820312 30.65625 -37.78125 C 30.175781 -38.15625 29.742188 -38.488281 29.359375 -38.78125 C 28.972656 -39.019531 28.585938 -39.210938 28.203125 -39.359375 C 27.773438 -39.503906 27.320312 -39.597656 26.84375 -39.640625 C 26.363281 -39.691406 25.785156 -39.71875 25.109375 -39.71875 C 23.191406 -39.71875 21.609375 -39.332031 20.359375 -38.5625 C 19.109375 -37.800781 18.484375 -36.722656 18.484375 -35.328125 C 18.484375 -34.660156 18.582031 -34.207031 18.78125 -33.96875 C 19.113281 -33.582031 19.640625 -33.242188 20.359375 -32.953125 C 21.035156 -32.617188 21.804688 -32.332031 22.671875 -32.09375 C 23.484375 -31.851562 24.296875 -31.660156 25.109375 -31.515625 C 25.878906 -31.328125 26.503906 -31.179688 26.984375 -31.078125 C 29.085938 -30.597656 31.195312 -30.023438 33.3125 -29.359375 C 35.425781 -28.679688 37.320312 -27.769531 39 -26.625 C 40.675781 -25.46875 42.039062 -24.03125 43.09375 -22.3125 C 44.101562 -20.53125 44.609375 -18.320312 44.609375 -15.6875 C 44.609375 -13.1875 44.101562 -10.976562 43.09375 -9.0625 C 42.09375 -7.144531 40.726562 -5.539062 39 -4.25 C 37.226562 -2.90625 35.140625 -1.894531 32.734375 -1.21875 C 30.335938 -0.5 27.75 -0.140625 24.96875 -0.140625 Z M 24.96875 -0.140625 "/></g></g></g><g fill="#ffffff" fill-opacity="1"><g transform="translate(211.892521, 205.420605)"><g><path d="M 11.375 -50.875 L 42.015625 -50.875 C 43.023438 -50.875 43.914062 -50.703125 44.6875 -50.359375 C 45.40625 -49.984375 46.023438 -49.53125 46.546875 -49 C 47.078125 -48.46875 47.488281 -47.867188 47.78125 -47.203125 C 48.019531 -46.523438 48.140625 -45.878906 48.140625 -45.265625 C 48.140625 -44.640625 48.019531 -43.988281 47.78125 -43.3125 C 47.539062 -42.59375 47.179688 -41.96875 46.703125 -41.4375 C 46.171875 -40.914062 45.519531 -40.488281 44.75 -40.15625 C 43.988281 -39.769531 43.101562 -39.578125 42.09375 -39.578125 L 33.75 -39.578125 C 33.601562 -39.578125 33.410156 -39.476562 33.171875 -39.28125 C 32.929688 -39.09375 32.8125 -38.804688 32.8125 -38.421875 L 32.8125 -5.609375 C 32.8125 -4.984375 32.691406 -4.335938 32.453125 -3.671875 C 32.210938 -2.992188 31.851562 -2.394531 31.375 -1.875 C 30.84375 -1.289062 30.191406 -0.832031 29.421875 -0.5 C 28.660156 -0.113281 27.773438 0.078125 26.765625 0.078125 C 25.753906 0.078125 24.890625 -0.113281 24.171875 -0.5 C 23.410156 -0.832031 22.789062 -1.289062 22.3125 -1.875 C 21.78125 -2.445312 21.394531 -3.066406 21.15625 -3.734375 C 20.863281 -4.410156 20.71875 -5.0625 20.71875 -5.6875 L 20.71875 -38.5 C 20.71875 -38.882812 20.625 -39.171875 20.4375 -39.359375 C 20.195312 -39.546875 19.976562 -39.640625 19.78125 -39.640625 L 11.4375 -39.640625 C 10.476562 -39.640625 9.613281 -39.8125 8.84375 -40.15625 C 8.082031 -40.4375 7.4375 -40.84375 6.90625 -41.375 C 6.375 -41.90625 5.96875 -42.503906 5.6875 -43.171875 C 5.394531 -43.796875 5.25 -44.46875 5.25 -45.1875 C 5.25 -45.8125 5.394531 -46.457031 5.6875 -47.125 C 5.925781 -47.800781 6.304688 -48.425781 6.828125 -49 C 7.359375 -49.53125 8.007812 -49.984375 8.78125 -50.359375 C 9.5 -50.703125 10.363281 -50.875 11.375 -50.875 Z M 11.375 -50.875 "/></g></g></g><g fill="#ffffff" fill-opacity="1"><g transform="translate(265.572317, 205.420605)"><g><path d="M 34.890625 -46.546875 L 50.359375 -7.703125 C 50.648438 -7.117188 50.796875 -6.445312 50.796875 -5.6875 C 50.796875 -5.0625 50.675781 -4.410156 50.4375 -3.734375 C 50.144531 -3.066406 49.738281 -2.46875 49.21875 -1.9375 C 48.6875 -1.414062 48.0625 -0.984375 47.34375 -0.640625 C 46.570312 -0.265625 45.6875 -0.078125 44.6875 -0.078125 C 43.195312 -0.078125 41.972656 -0.457031 41.015625 -1.21875 C 40.054688 -1.988281 39.382812 -2.851562 39 -3.8125 L 35.046875 -13.953125 C 34.804688 -14.335938 34.515625 -14.53125 34.171875 -14.53125 L 22.015625 -14.53125 C 21.867188 -14.53125 21.722656 -14.484375 21.578125 -14.390625 C 21.390625 -14.296875 21.25 -14.148438 21.15625 -13.953125 L 17.125 -3.8125 C 16.738281 -2.851562 16.066406 -1.988281 15.109375 -1.21875 C 14.148438 -0.457031 12.925781 -0.078125 11.4375 -0.078125 C 10.476562 -0.078125 9.613281 -0.265625 8.84375 -0.640625 C 8.082031 -0.984375 7.460938 -1.414062 6.984375 -1.9375 C 6.453125 -2.46875 6.066406 -3.066406 5.828125 -3.734375 C 5.535156 -4.410156 5.390625 -5.0625 5.390625 -5.6875 C 5.390625 -6.40625 5.507812 -7.078125 5.75 -7.703125 L 21.21875 -46.546875 C 21.707031 -47.753906 22.570312 -48.8125 23.8125 -49.71875 C 25.007812 -50.582031 26.453125 -51.015625 28.140625 -51.015625 C 29.816406 -51.015625 31.253906 -50.554688 32.453125 -49.640625 C 33.648438 -48.734375 34.460938 -47.703125 34.890625 -46.546875 Z M 28.0625 -31.15625 C 27.675781 -30.34375 27.316406 -29.523438 26.984375 -28.703125 C 26.648438 -27.847656 26.3125 -26.988281 25.96875 -26.125 C 25.96875 -26.019531 25.921875 -25.921875 25.828125 -25.828125 L 30.140625 -25.828125 C 30.140625 -25.878906 30.09375 -26 30 -26.1875 C 29.90625 -26.570312 29.765625 -26.984375 29.578125 -27.421875 C 29.378906 -27.847656 29.1875 -28.300781 29 -28.78125 C 28.851562 -29.207031 28.707031 -29.613281 28.5625 -30 C 28.375 -30.382812 28.207031 -30.769531 28.0625 -31.15625 Z M 28.0625 -31.15625 "/></g></g></g><g fill="#ffffff" fill-opacity="1"><g transform="translate(321.698651, 205.420605)"><g><path d="M 31.375 -21.515625 C 31.519531 -21.179688 31.78125 -20.703125 32.15625 -20.078125 C 32.539062 -19.503906 32.972656 -18.851562 33.453125 -18.125 C 33.890625 -17.363281 34.367188 -16.570312 34.890625 -15.75 C 35.898438 -14.125 36.863281 -12.613281 37.78125 -11.21875 C 38.644531 -9.832031 39.195312 -8.945312 39.4375 -8.5625 C 40.007812 -7.695312 40.296875 -6.738281 40.296875 -5.6875 C 40.296875 -5.0625 40.175781 -4.410156 39.9375 -3.734375 C 39.644531 -3.015625 39.257812 -2.394531 38.78125 -1.875 C 38.25 -1.34375 37.625 -0.910156 36.90625 -0.578125 C 36.144531 -0.191406 35.257812 0 34.25 0 C 33.050781 0 32.019531 -0.265625 31.15625 -0.796875 C 30.238281 -1.316406 29.519531 -1.988281 29 -2.8125 L 18.921875 -19 C 18.628906 -19.382812 18.316406 -19.578125 17.984375 -19.578125 C 17.941406 -19.578125 17.847656 -19.550781 17.703125 -19.5 C 17.554688 -19.40625 17.484375 -19.191406 17.484375 -18.859375 L 17.484375 -5.6875 C 17.484375 -5.0625 17.363281 -4.410156 17.125 -3.734375 C 16.882812 -3.066406 16.523438 -2.46875 16.046875 -1.9375 C 15.515625 -1.363281 14.867188 -0.910156 14.109375 -0.578125 C 13.335938 -0.191406 12.445312 0 11.4375 0 C 10.425781 0 9.5625 -0.191406 8.84375 -0.578125 C 8.082031 -0.910156 7.460938 -1.363281 6.984375 -1.9375 C 6.453125 -2.519531 6.066406 -3.144531 5.828125 -3.8125 C 5.535156 -4.488281 5.390625 -5.132812 5.390625 -5.75 L 5.390625 -45.328125 C 5.390625 -46.003906 5.535156 -46.675781 5.828125 -47.34375 C 6.066406 -48.019531 6.453125 -48.644531 6.984375 -49.21875 C 7.503906 -49.738281 8.148438 -50.191406 8.921875 -50.578125 C 9.640625 -50.921875 10.503906 -51.09375 11.515625 -51.09375 L 23.234375 -51.09375 C 25.921875 -51.09375 28.320312 -50.660156 30.4375 -49.796875 C 32.5 -48.878906 34.25 -47.675781 35.6875 -46.1875 C 37.082031 -44.707031 38.160156 -43.03125 38.921875 -41.15625 C 39.640625 -39.238281 40 -37.296875 40 -35.328125 C 40 -32.015625 39.257812 -29.28125 37.78125 -27.125 C 36.289062 -24.914062 34.15625 -23.046875 31.375 -21.515625 Z M 17.40625 -32.15625 C 17.40625 -31.78125 17.523438 -31.492188 17.765625 -31.296875 C 18.003906 -31.109375 18.195312 -31.015625 18.34375 -31.015625 L 23.09375 -31.015625 C 24.582031 -31.015625 25.734375 -31.394531 26.546875 -32.15625 C 27.316406 -32.882812 27.703125 -33.941406 27.703125 -35.328125 C 27.703125 -36.722656 27.316406 -37.800781 26.546875 -38.5625 C 25.734375 -39.28125 24.582031 -39.640625 23.09375 -39.640625 L 18.34375 -39.640625 C 18.195312 -39.640625 18.003906 -39.546875 17.765625 -39.359375 C 17.523438 -39.171875 17.40625 -38.882812 17.40625 -38.5 Z M 17.40625 -32.15625 "/></g></g></g></svg>